<svg width="69" height="58" viewBox="0 0 69 58" fill="none" xmlns="http://www.w3.org/2000/svg">
<path d="M45.8032 54.881V49.1166C45.8032 46.059 44.5885 43.1266 42.4265 40.9646C40.2644 38.8025 37.332 37.5879 34.2744 37.5879H14.0991C11.0415 37.5879 8.10907 38.8025 5.94701 40.9646C3.78495 43.1266 2.57031 46.059 2.57031 49.1166V54.881" stroke="black" stroke-width="5" stroke-linecap="round" stroke-linejoin="round"/>
<path d="M24.1889 26.0575C30.5561 26.0575 35.7177 20.8959 35.7177 14.5288C35.7177 8.1616 30.5561 3 24.1889 3C17.8218 3 12.6602 8.1616 12.6602 14.5288C12.6602 20.8959 17.8218 26.0575 24.1889 26.0575Z" stroke="black" stroke-width="5" stroke-linecap="round" stroke-linejoin="round"/>
<path d="M48.6875 26.0573L54.4519 31.8217L65.9806 20.293" stroke="black" stroke-width="5" stroke-linecap="round" stroke-linejoin="round"/>
</svg>
