<svg width="52" height="44" viewBox="0 0 52 44" fill="none" xmlns="http://www.w3.org/2000/svg">
<path d="M29.0313 27.4219C29.0313 19.5052 30.9323 13.3073 34.7344 8.82812C38.5885 4.34896 43.9792 1.40625 50.9062 0V8.125C45.6458 9.73958 42.1042 12.6562 40.2812 16.875C39.2396 19.1146 38.8229 21.276 39.0312 23.3594L51.2969 23.3594L51.2969 43.9062H29.0313L29.0313 27.4219ZM0 27.4219C0 19.6094 1.84896 13.4375 5.54688 8.90625C9.29688 4.375 14.7396 1.40625 21.875 0V8.125C16.5625 9.79167 12.9948 12.6562 11.1719 16.7188C10.2344 18.8542 9.84375 21.0677 10 23.3594L22.2656 23.3594L22.2656 43.9062H0L0 27.4219Z" fill="#F0F0F0"/>
</svg>
