<svg width="52" height="44" viewBox="0 0 52 44" fill="none" xmlns="http://www.w3.org/2000/svg">
<path d="M22.9688 16.4844C22.9688 24.401 21.0677 30.599 17.2656 35.0781C13.4115 39.5573 8.02083 42.5 1.09375 43.9062L1.09375 35.7812C6.35417 34.1667 9.89583 31.25 11.7188 27.0312C12.7604 24.7917 13.1771 22.6302 12.9688 20.5469L0.703127 20.5469L0.703129 -4.48452e-06L22.9688 -2.53799e-06L22.9688 16.4844ZM52 16.4844C52 24.2969 50.151 30.4687 46.4531 35C42.7031 39.5312 37.2604 42.5 30.125 43.9062L30.125 35.7812C35.4375 34.1146 39.0052 31.25 40.8281 27.1875C41.7656 25.0521 42.1563 22.8385 42 20.5469L29.7344 20.5469L29.7344 -1.94652e-06L52 0L52 16.4844Z" fill="#F0F0F0"/>
</svg>
